
<svg width="405px" height="159px" viewBox="0 0 405 159" version="1.1" xmlns="http://www.w3.org/2000/svg" xmlns:xlink="http://www.w3.org/1999/xlink">
    <g id="Page-1" stroke="none" stroke-width="1" fill="none" fill-rule="evenodd">
        <g id="输入框交互规范7" transform="translate(-80.000000, -415.000000)">
            <g id="分组-3-copy" transform="translate(80.000000, 415.000000)">
                <g id="Group-Copy">
                    <rect id="矩形" fill="#F4F6F8" fill-rule="nonzero" x="0" y="0" width="405" height="159"></rect>
                    <text id="聚焦状态" font-family="PingFangSC-Regular, PingFang SC" font-size="18" font-weight="normal" line-spacing="30" fill="#333333">
                        <tspan x="167" y="27">聚焦状态</tspan>
                    </text>
                </g>
                <g id="分组-2" transform="translate(15.000000, 46.000000)">
                    <rect id="Rectangle-2" fill="#FFFFFF" fill-rule="nonzero" x="0" y="0" width="375" height="98"></rect>
                    <g id="分组-5" transform="translate(14.000000, 15.000000)">
                        <text id="请输入18位身份证号码" font-family="PingFangSC-Regular, PingFang SC" font-size="16" font-weight="normal" fill="#333333">
                            <tspan x="1" y="17">请输入18位身份证号码</tspan>
                        </text>
                        <g id="身份证输入" transform="translate(0.000000, 29.000000)">
                            <path d="M173.25,-134 L173.25,-134 C173.388071,-134 173.5,-133.888071 173.5,-133.75 L173.5,210.75 C173.5,210.888071 173.388071,211 173.25,211 L173.25,211 C173.111929,211 173,210.888071 173,210.75 L173,-133.75 C173,-133.888071 173.111929,-134 173.25,-134 Z" id="Rectangle-3" fill="#4586FF" transform="translate(173.250000, 38.500000) rotate(90.000000) translate(-173.250000, -38.500000) "></path>
                            <text id="请输入身份证号" font-family="PingFangSC-Regular, PingFang SC" font-size="24" font-weight="normal" fill="#CCCCCC">
                                <tspan x="1" y="25">请输入身份证号</tspan>
                            </text>
                            <rect id="Rectangle-3" fill="#4586FF" x="1" y="4" width="2" height="26" rx="1"></rect>
                        </g>
                    </g>
                </g>
            </g>
        </g>
    </g>
</svg>