
<svg width="405px" height="159px" viewBox="0 0 405 159" version="1.1" xmlns="http://www.w3.org/2000/svg" xmlns:xlink="http://www.w3.org/1999/xlink">
    <g id="Page-1" stroke="none" stroke-width="1" fill="none" fill-rule="evenodd">
        <g id="输入框常见样式-标题在上(2)" transform="translate(-88.000000, -401.000000)">
            <g id="分组-3-copy" transform="translate(88.000000, 401.000000)">
                <g id="Group-Copy">
                    <rect id="矩形" fill="#F4F6F8" fill-rule="nonzero" x="0" y="0" width="405" height="159"></rect>
                    <text id="输入状态" font-family="PingFangSC-Regular, PingFang SC" font-size="18" font-weight="normal" line-spacing="30" fill="#333333">
                        <tspan x="167" y="27">输入状态</tspan>
                    </text>
                </g>
                <g id="分组-2" transform="translate(15.000000, 46.000000)">
                    <rect id="Rectangle-2" fill="#FFFFFF" fill-rule="nonzero" x="0" y="0" width="375" height="98"></rect>
                    <g id="Group-3" transform="translate(15.000000, 15.000000)">
                        <text id="59s" font-family="PingFangSC-Medium, PingFang SC" font-size="13" font-weight="400" fill="#888888">
                            <tspan x="305.82" y="51">59s</tspan>
                        </text>
                        <text id="请输入6位短信验证码" font-family="PingFangSC-Regular, PingFang SC" font-size="16" font-weight="normal" fill="#333333">
                            <tspan x="0" y="17">请输入6位短信验证码</tspan>
                        </text>
                        <path d="M18.75,49 L18.75,49 C18.8880712,49 19,49.1119288 19,49.25 L19,86.25 C19,86.3880712 18.8880712,86.5 18.75,86.5 L18.75,86.5 C18.6119288,86.5 18.5,86.3880712 18.5,86.25 L18.5,49.25 C18.5,49.1119288 18.6119288,49 18.75,49 Z" id="Rectangle-3" fill="#4586FF" transform="translate(18.750000, 67.750000) rotate(90.000000) translate(-18.750000, -67.750000) "></path>
                        <rect id="Rectangle-3" fill="#4586FF" x="18" y="33" width="2" height="26" rx="1"></rect>
                        <path d="M66.25,49 L66.25,49 C66.3880712,49 66.5,49.1119288 66.5,49.25 L66.5,86.25 C66.5,86.3880712 66.3880712,86.5 66.25,86.5 L66.25,86.5 C66.1119288,86.5 66,86.3880712 66,86.25 L66,49.25 C66,49.1119288 66.1119288,49 66.25,49 Z" id="Rectangle-3" fill="#444444" transform="translate(66.250000, 67.750000) rotate(90.000000) translate(-66.250000, -67.750000) "></path>
                        <path d="M113.75,49 L113.75,49 C113.888071,49 114,49.1119288 114,49.25 L114,86.25 C114,86.3880712 113.888071,86.5 113.75,86.5 L113.75,86.5 C113.611929,86.5 113.5,86.3880712 113.5,86.25 L113.5,49.25 C113.5,49.1119288 113.611929,49 113.75,49 Z" id="Rectangle-3" fill="#444444" transform="translate(113.750000, 67.750000) rotate(90.000000) translate(-113.750000, -67.750000) "></path>
                        <path d="M161.25,49 L161.25,49 C161.388071,49 161.5,49.1119288 161.5,49.25 L161.5,86.25 C161.5,86.3880712 161.388071,86.5 161.25,86.5 L161.25,86.5 C161.111929,86.5 161,86.3880712 161,86.25 L161,49.25 C161,49.1119288 161.111929,49 161.25,49 Z" id="Rectangle-3" fill="#444444" transform="translate(161.250000, 67.750000) rotate(90.000000) translate(-161.250000, -67.750000) "></path>
                        <path d="M208.75,49 L208.75,49 C208.888071,49 209,49.1119288 209,49.25 L209,86.25 C209,86.3880712 208.888071,86.5 208.75,86.5 L208.75,86.5 C208.611929,86.5 208.5,86.3880712 208.5,86.25 L208.5,49.25 C208.5,49.1119288 208.611929,49 208.75,49 Z" id="Rectangle-3" fill="#444444" transform="translate(208.750000, 67.750000) rotate(90.000000) translate(-208.750000, -67.750000) "></path>
                        <path d="M256.25,49 L256.25,49 C256.388071,49 256.5,49.1119288 256.5,49.25 L256.5,86.25 C256.5,86.3880712 256.388071,86.5 256.25,86.5 L256.25,86.5 C256.111929,86.5 256,86.3880712 256,86.25 L256,49.25 C256,49.1119288 256.111929,49 256.25,49 Z" id="Rectangle-3" fill="#444444" transform="translate(256.250000, 67.750000) rotate(90.000000) translate(-256.250000, -67.750000) "></path>
                    </g>
                </g>
            </g>
        </g>
    </g>
</svg>