
<svg width="403px" height="112px" viewBox="0 0 403 112" version="1.1" xmlns="http://www.w3.org/2000/svg" xmlns:xlink="http://www.w3.org/1999/xlink">
    <g id="Page-1" stroke="none" stroke-width="1" fill="none" fill-rule="evenodd">
        <g id="选择框交互规范3" transform="translate(-94.000000, -240.000000)">
            <g id="Group" transform="translate(94.000000, 240.000000)">
                <rect id="Rectangle-3" fill="#F4F6F8" x="0" y="0" width="403" height="112"></rect>
                <text id="常态" font-family="PingFangSC-Regular, PingFang SC" font-size="18" font-weight="normal" line-spacing="30" fill="#333333">
                    <tspan x="184" y="27">常态</tspan>
                </text>
                <g id="分组-2" transform="translate(14.000000, 47.000000)">
                    <rect id="Rectangle-3" fill="#FFFFFF" x="0" y="0" width="375" height="50"></rect>
                    <g id="箭头" transform="translate(344.000000, 17.000000)" fill="#CCCCCC">
                        <path d="M13.2026182,2.79738183 L13.3333333,2.79738183 L13.3333333,12.5481241 C13.3333333,12.9817832 12.9817832,13.3333333 12.5481241,13.3333333 C12.1144651,13.3333333 11.762915,12.9817832 11.762915,12.5481241 L11.762915,4.23708505 L3.45187586,4.23708505 C3.0182168,4.23708505 2.66666667,3.88553492 2.66666667,3.45187586 C2.66666667,3.0182168 3.0182168,2.66666667 3.45187586,2.66666667 L13.2026182,2.66666667 L13.2026182,2.79738183 Z" id="Combined-Shape" transform="translate(8.000000, 8.000000) rotate(-315.000000) translate(-8.000000, -8.000000) "></path>
                    </g>
                    <text id="有效期至" font-family="PingFangSC-Regular, PingFang SC" font-size="15" font-weight="normal" fill="#444444">
                        <tspan x="15" y="30.5">有效期至</tspan>
                    </text>
                    <text id="请选择" font-family="PingFangSC-Regular, PingFang SC" font-size="15" font-weight="normal" fill="#A9A9A9">
                        <tspan x="285" y="31">请选择</tspan>
                    </text>
                </g>
            </g>
        </g>
    </g>
</svg>