
<svg width="405px" height="159px" viewBox="0 0 405 159" version="1.1" xmlns="http://www.w3.org/2000/svg" xmlns:xlink="http://www.w3.org/1999/xlink">
    <g id="Page-1" stroke="none" stroke-width="1" fill="none" fill-rule="evenodd">
        <g id="输入框交互规范7" transform="translate(-565.000000, -467.000000)">
            <g id="分组-3-copy-4" transform="translate(565.000000, 467.000000)">
                <g id="Group-Copy">
                    <rect id="矩形" fill="#F4F6F8" fill-rule="nonzero" x="0" y="0" width="405" height="159"></rect>
                    <text id="错误状态" font-family="PingFangSC-Regular, PingFang SC" font-size="18" font-weight="normal" line-spacing="30" fill="#333333">
                        <tspan x="167" y="27">错误状态</tspan>
                    </text>
                </g>
                <g id="分组-2" transform="translate(15.000000, 46.000000)">
                    <rect id="Rectangle-2" fill="#FFFFFF" fill-rule="nonzero" x="0" y="0" width="375" height="98"></rect>
                    <g id="分组-8" transform="translate(15.000000, 15.000000)">
                        <text id="身份证号填写有误" font-family="PingFangSC-Regular, PingFang SC" font-size="16" font-weight="normal" fill="#FF4D29">
                            <tspan x="0" y="17">身份证号填写有误</tspan>
                        </text>
                        <g id="身份证输入" transform="translate(0.000000, 29.000000)">
                            <path d="M172.5,-134.25 L172.5,-134.25 C172.638071,-134.25 172.75,-134.138071 172.75,-134 L172.75,210.5 C172.75,210.638071 172.638071,210.75 172.5,210.75 L172.5,210.75 C172.361929,210.75 172.25,210.638071 172.25,210.5 L172.25,-134 C172.25,-134.138071 172.361929,-134.25 172.5,-134.25 Z" id="Rectangle-3" fill="#FF4D29" transform="translate(172.500000, 38.250000) rotate(90.000000) translate(-172.500000, -38.250000) "></path>
                            <text id="67893219683219781239" font-family="PingFangSC-Regular, PingFang SC" font-size="24" font-weight="normal" fill="#222222">
                                <tspan x="0" y="25">6789321968321978123982</tspan>
                            </text>
                        </g>
                    </g>
                </g>
            </g>
        </g>
    </g>
</svg>